<svg width="20" height="20" viewBox="0 0 20 20" fill="none" xmlns="http://www.w3.org/2000/svg">
<path fill-rule="evenodd" clip-rule="evenodd" d="M9.99992 17.5C5.85778 17.5 2.49992 14.1421 2.49992 9.99996C2.49992 5.85782 5.85778 2.49996 9.99992 2.49996C14.1421 2.49996 17.4999 5.85782 17.4999 9.99996C17.4999 14.1421 14.1421 17.5 9.99992 17.5ZM0.833252 9.99996C0.833252 15.0626 4.93731 19.1666 9.99992 19.1666C15.0625 19.1666 19.1666 15.0626 19.1666 9.99996C19.1666 4.93735 15.0625 0.833294 9.99992 0.833294C4.93731 0.833294 0.833252 4.93735 0.833252 9.99996Z" fill="#FB4F57"/>
<path fill-rule="evenodd" clip-rule="evenodd" d="M10.0001 14.1666C10.4603 14.1666 10.8334 13.7935 10.8334 13.3333V9.99996C10.8334 9.53972 10.4603 9.16663 10.0001 9.16663C9.53984 9.16663 9.16675 9.53972 9.16675 9.99996V13.3333C9.16675 13.7935 9.53984 14.1666 10.0001 14.1666Z" fill="#FB4F57"/>
<path fill-rule="evenodd" clip-rule="evenodd" d="M9.16675 6.66667C9.16675 7.1269 9.53984 7.5 10.0001 7.5H10.0084C10.4687 7.5 10.8417 7.1269 10.8417 6.66667C10.8417 6.20643 10.4687 5.83333 10.0084 5.83333H10.0001C9.53984 5.83333 9.16675 6.20643 9.16675 6.66667Z" fill="#FB4F57"/>
</svg>
