<svg width="16" height="16" viewBox="0 0 16 16" fill="none" xmlns="http://www.w3.org/2000/svg">
<path fill-rule="evenodd" clip-rule="evenodd" d="M7.3335 6.66668C6.96531 6.66668 6.66683 6.96515 6.66683 7.33334V13.3333C6.66683 13.7015 6.96531 14 7.3335 14H13.3335C13.7017 14 14.0002 13.7015 14.0002 13.3333V7.33334C14.0002 6.96515 13.7017 6.66668 13.3335 6.66668H7.3335ZM5.3335 7.33334C5.3335 6.22877 6.22893 5.33334 7.3335 5.33334H13.3335C14.4381 5.33334 15.3335 6.22877 15.3335 7.33334V13.3333C15.3335 14.4379 14.4381 15.3333 13.3335 15.3333H7.3335C6.22893 15.3333 5.3335 14.4379 5.3335 13.3333V7.33334Z" fill="#86868B"/>
<path fill-rule="evenodd" clip-rule="evenodd" d="M2.6665 1.99999C2.48969 1.99999 2.32012 2.07023 2.1951 2.19525C2.07008 2.32028 1.99984 2.48985 1.99984 2.66666V8.66666C1.99984 8.84347 2.07008 9.01304 2.1951 9.13806C2.32012 9.26309 2.48969 9.33332 2.6665 9.33332H3.33317C3.70136 9.33332 3.99984 9.6318 3.99984 9.99999C3.99984 10.3682 3.70136 10.6667 3.33317 10.6667H2.6665C2.13607 10.6667 1.62736 10.4559 1.25229 10.0809C0.877218 9.7058 0.666504 9.19709 0.666504 8.66666V2.66666C0.666504 2.13622 0.877217 1.62752 1.25229 1.25244C1.62736 0.87737 2.13607 0.666656 2.6665 0.666656H8.6665C9.19694 0.666656 9.70564 0.87737 10.0807 1.25244C10.4558 1.62752 10.6665 2.13622 10.6665 2.66666V3.33332C10.6665 3.70151 10.368 3.99999 9.99984 3.99999C9.63165 3.99999 9.33317 3.70151 9.33317 3.33332V2.66666C9.33317 2.48985 9.26293 2.32028 9.13791 2.19525C9.01288 2.07023 8.84332 1.99999 8.6665 1.99999H2.6665Z" fill="#86868B"/>
</svg>
