<svg width="16" height="17" viewBox="0 0 16 17" fill="none" xmlns="http://www.w3.org/2000/svg">
<path fill-rule="evenodd" clip-rule="evenodd" d="M3.33334 5.16666C3.15653 5.16666 2.98696 5.2369 2.86194 5.36192C2.73691 5.48695 2.66668 5.65652 2.66668 5.83333V13.1667C2.66668 13.3435 2.73691 13.513 2.86194 13.6381C2.98696 13.7631 3.15653 13.8333 3.33334 13.8333H10.6667C10.8435 13.8333 11.0131 13.7631 11.1381 13.6381C11.2631 13.513 11.3333 13.3435 11.3333 13.1667V9.16666C11.3333 8.79847 11.6318 8.49999 12 8.49999C12.3682 8.49999 12.6667 8.79847 12.6667 9.16666V13.1667C12.6667 13.6971 12.456 14.2058 12.0809 14.5809C11.7058 14.9559 11.1971 15.1667 10.6667 15.1667H3.33334C2.80291 15.1667 2.2942 14.9559 1.91913 14.5809C1.54406 14.2058 1.33334 13.6971 1.33334 13.1667V5.83333C1.33334 5.3029 1.54406 4.79419 1.91913 4.41911C2.2942 4.04404 2.80291 3.83333 3.33334 3.83333H7.33334C7.70153 3.83333 8.00001 4.13181 8.00001 4.49999C8.00001 4.86818 7.70153 5.16666 7.33334 5.16666H3.33334Z" fill="#0F61FF"/>
<path fill-rule="evenodd" clip-rule="evenodd" d="M9.33333 2.49999C9.33333 2.13181 9.63181 1.83333 9.99999 1.83333H14C14.3682 1.83333 14.6667 2.13181 14.6667 2.49999V6.5C14.6667 6.86819 14.3682 7.16666 14 7.16666C13.6318 7.16666 13.3333 6.86819 13.3333 6.5V3.16666H9.99999C9.63181 3.16666 9.33333 2.86818 9.33333 2.49999Z" fill="#0F61FF"/>
<path fill-rule="evenodd" clip-rule="evenodd" d="M14.4714 2.02859C14.7318 2.28894 14.7318 2.71105 14.4714 2.9714L7.13807 10.3047C6.87772 10.5651 6.45561 10.5651 6.19526 10.3047C5.93491 10.0444 5.93491 9.62227 6.19526 9.36192L13.5286 2.02859C13.7889 1.76824 14.2111 1.76824 14.4714 2.02859Z" fill="#0F61FF"/>
</svg>
