<svg width="20" height="20" viewBox="0 0 20 20" fill="none" xmlns="http://www.w3.org/2000/svg">
<path fill-rule="evenodd" clip-rule="evenodd" d="M1.66669 9.99999C1.66669 9.53975 2.03978 9.16666 2.50002 9.16666H17.5C17.9603 9.16666 18.3334 9.53975 18.3334 9.99999C18.3334 10.4602 17.9603 10.8333 17.5 10.8333H2.50002C2.03978 10.8333 1.66669 10.4602 1.66669 9.99999Z" fill="#1D1D1F"/>
<path fill-rule="evenodd" clip-rule="evenodd" d="M1.66669 4.99999C1.66669 4.53975 2.03978 4.16666 2.50002 4.16666H17.5C17.9603 4.16666 18.3334 4.53975 18.3334 4.99999C18.3334 5.46023 17.9603 5.83332 17.5 5.83332H2.50002C2.03978 5.83332 1.66669 5.46023 1.66669 4.99999Z" fill="#1D1D1F"/>
<path fill-rule="evenodd" clip-rule="evenodd" d="M1.66669 15C1.66669 14.5398 2.03978 14.1667 2.50002 14.1667H17.5C17.9603 14.1667 18.3334 14.5398 18.3334 15C18.3334 15.4602 17.9603 15.8333 17.5 15.8333H2.50002C2.03978 15.8333 1.66669 15.4602 1.66669 15Z" fill="#1D1D1F"/>
</svg>
