<svg width="17" height="17" viewBox="0 0 17 17" fill="none" xmlns="http://www.w3.org/2000/svg">
<path d="M8.49999 1.41666C4.58999 1.41666 1.41666 4.59 1.41666 8.5C1.41666 12.41 4.58999 15.5833 8.49999 15.5833C12.41 15.5833 15.5833 12.41 15.5833 8.5C15.5833 4.59 12.41 1.41666 8.49999 1.41666ZM8.49999 14.1667C5.37624 14.1667 2.83332 11.6237 2.83332 8.5C2.83332 5.37625 5.37624 2.83333 8.49999 2.83333C11.6237 2.83333 14.1667 5.37625 14.1667 8.5C14.1667 11.6237 11.6237 14.1667 8.49999 14.1667ZM11.7512 5.36916L7.08332 10.0371L5.24874 8.20958L4.24999 9.20833L7.08332 12.0417L12.75 6.375L11.7512 5.36916Z" fill="#6E6E73"/>
</svg>
