<svg width="30" height="40" viewBox="0 0 30 40" fill="none" xmlns="http://www.w3.org/2000/svg">
<path d="M29.3342 29.5099C28.9183 22.164 19.6605 18.825 18.7745 18.482C18.7383 18.464 18.7383 18.4279 18.7564 18.3918L28.3035 8.82589V7.79711C28.3035 7.63467 28.1588 7.49028 27.9961 7.49028H10.4026V0L3.91132 1.35366V2.3283H4.27295C4.27295 2.3283 5.86414 2.3283 5.86414 3.9166V7.47223H0.837433C0.747025 7.47223 0.656616 7.56247 0.656616 7.65272V9.90882H5.88222V22.164C5.88222 26.0084 8.35941 28.6796 12.699 28.3187C13.6212 28.2465 14.471 27.8855 15.1943 27.4162C15.5198 27.1996 15.7187 26.8567 15.7187 26.4596V25.2504C14.3083 26.1889 13.1149 26.1347 13.1149 26.1347C10.3665 26.1347 10.4207 22.6513 10.4207 22.6513V9.90882H23.0779L13.9647 19.0776C13.9467 20.2869 13.9286 21.2255 13.9286 21.2435C13.9286 21.2796 13.9466 21.2977 13.9828 21.2977C22.3365 22.7055 24.5968 28.1021 24.5968 29.6723C24.5968 29.6723 25.5008 37.307 17.8523 37.8304C17.8523 37.8304 12.8437 38.047 11.9577 36.0436C11.9215 35.9714 11.9577 35.8992 12.03 35.8631C12.8617 35.4841 13.4223 34.7441 13.4223 33.7514C13.4223 32.2714 12.5182 31.0621 10.6196 31.0621C9.08268 31.0621 7.81696 32.2714 7.81696 33.7514C7.81696 33.7514 7.09369 40.1768 17.8342 39.9963C30.0936 39.7797 29.3342 29.5099 29.3342 29.5099Z" fill="#0F61FF"/>
</svg>
