<svg width="29" height="40" viewBox="0 0 29 40" fill="none" xmlns="http://www.w3.org/2000/svg">
<path d="M28.6775 29.5099C28.2617 22.164 19.0038 18.825 18.1178 18.482C18.0817 18.464 18.0817 18.4279 18.0998 18.3918L27.6469 8.82589V7.79711C27.6469 7.63467 27.5022 7.49028 27.3395 7.49028H9.74602V0L3.2547 1.35366V2.3283H3.61634C3.61634 2.3283 5.20752 2.3283 5.20752 3.9166V7.47223H0.180817C0.0904084 7.47223 0 7.56247 0 7.65272V9.90882H5.2256V22.164C5.2256 26.0084 7.7028 28.6796 12.0424 28.3187C12.9646 28.2465 13.8144 27.8855 14.5377 27.4162C14.8631 27.1996 15.062 26.8567 15.062 26.4596V25.2504C13.6517 26.1889 12.4583 26.1347 12.4583 26.1347C9.70986 26.1347 9.7641 22.6513 9.7641 22.6513V9.90882H22.4213L13.3081 19.0776C13.29 20.2869 13.272 21.2255 13.272 21.2435C13.272 21.2796 13.29 21.2977 13.3262 21.2977C21.6799 22.7055 23.9401 28.1021 23.9401 29.6723C23.9401 29.6723 24.8442 37.307 17.1957 37.8304C17.1957 37.8304 12.187 38.047 11.301 36.0436C11.2649 35.9714 11.301 35.8992 11.3734 35.8631C12.2051 35.4841 12.7657 34.7441 12.7657 33.7514C12.7657 32.2714 11.8616 31.0621 9.963 31.0621C8.42606 31.0621 7.16034 32.2714 7.16034 33.7514C7.16034 33.7514 6.43708 40.1768 17.1776 39.9963C29.437 39.7797 28.6775 29.5099 28.6775 29.5099Z" fill="#6219FF"/>
</svg>
