<svg width="18" height="18" viewBox="0 0 18 18" fill="none" xmlns="http://www.w3.org/2000/svg">
<rect width="18" height="18" rx="9" fill="#86868B"/>
<path fill-rule="evenodd" clip-rule="evenodd" d="M5.46152 5.73612C5.46152 3.8105 7.04519 2.25 8.9994 2.25C10.9536 2.25 12.5384 3.8105 12.5384 5.73612C12.5384 7.66291 10.9536 9.22341 8.9994 9.22341C7.04519 9.22341 5.46152 7.66291 5.46152 5.73612ZM9.0252 16.5C11.3616 16.5 13.476 15.5783 15 14.0955V13.0436C15 11.7717 13.926 10.7394 12.6 10.7394H5.4C4.074 10.7394 3 11.7717 3 13.0436V14.0425C4.5276 15.5553 6.6624 16.5 9.0252 16.5Z" fill="white"/>
</svg>
