<svg width="17" height="17" viewBox="0 0 17 17" fill="none" xmlns="http://www.w3.org/2000/svg">
<path fill-rule="evenodd" clip-rule="evenodd" d="M8.5 2.49996C5.18629 2.49996 2.5 5.18625 2.5 8.49996C2.5 11.8137 5.18629 14.5 8.5 14.5C11.8137 14.5 14.5 11.8137 14.5 8.49996C14.5 5.18625 11.8137 2.49996 8.5 2.49996ZM1.16666 8.49996C1.16666 4.44987 4.44991 1.16663 8.5 1.16663C12.5501 1.16663 15.8333 4.44987 15.8333 8.49996C15.8333 12.55 12.5501 15.8333 8.5 15.8333C4.44991 15.8333 1.16666 12.55 1.16666 8.49996Z" fill="#0F61FF"/>
<path fill-rule="evenodd" clip-rule="evenodd" d="M8.5 5.16663C8.86819 5.16663 9.16667 5.4651 9.16667 5.83329V8.49996C9.16667 8.86815 8.86819 9.16663 8.5 9.16663C8.13181 9.16663 7.83333 8.86815 7.83333 8.49996V5.83329C7.83333 5.4651 8.13181 5.16663 8.5 5.16663Z" fill="#0F61FF"/>
<path fill-rule="evenodd" clip-rule="evenodd" d="M7.83333 11.1667C7.83333 10.7985 8.13181 10.5 8.5 10.5H8.50667C8.87486 10.5 9.17333 10.7985 9.17333 11.1667C9.17333 11.5349 8.87486 11.8333 8.50667 11.8333H8.5C8.13181 11.8333 7.83333 11.5349 7.83333 11.1667Z" fill="#0F61FF"/>
</svg>
