<svg width="16" height="17" viewBox="0 0 16 17" fill="none" xmlns="http://www.w3.org/2000/svg">
<path fill-rule="evenodd" clip-rule="evenodd" d="M3.33325 5.16666C3.15644 5.16666 2.98687 5.2369 2.86185 5.36192C2.73682 5.48695 2.66659 5.65652 2.66659 5.83333V13.1667C2.66659 13.3435 2.73682 13.513 2.86185 13.6381C2.98687 13.7631 3.15644 13.8333 3.33325 13.8333H10.6666C10.8434 13.8333 11.013 13.7631 11.138 13.6381C11.263 13.513 11.3333 13.3435 11.3333 13.1667V9.16666C11.3333 8.79847 11.6317 8.49999 11.9999 8.49999C12.3681 8.49999 12.6666 8.79847 12.6666 9.16666V13.1667C12.6666 13.6971 12.4559 14.2058 12.0808 14.5809C11.7057 14.9559 11.197 15.1667 10.6666 15.1667H3.33325C2.80282 15.1667 2.29411 14.9559 1.91904 14.5809C1.54397 14.2058 1.33325 13.6971 1.33325 13.1667V5.83333C1.33325 5.3029 1.54397 4.79419 1.91904 4.41911C2.29411 4.04404 2.80282 3.83333 3.33325 3.83333H7.33325C7.70144 3.83333 7.99992 4.13181 7.99992 4.49999C7.99992 4.86818 7.70144 5.16666 7.33325 5.16666H3.33325Z" fill="#0F61FF"/>
<path fill-rule="evenodd" clip-rule="evenodd" d="M9.33325 2.49999C9.33325 2.13181 9.63173 1.83333 9.99992 1.83333H13.9999C14.3681 1.83333 14.6666 2.13181 14.6666 2.49999V6.5C14.6666 6.86819 14.3681 7.16666 13.9999 7.16666C13.6317 7.16666 13.3333 6.86819 13.3333 6.5V3.16666H9.99992C9.63173 3.16666 9.33325 2.86818 9.33325 2.49999Z" fill="#0F61FF"/>
<path fill-rule="evenodd" clip-rule="evenodd" d="M14.4714 2.02859C14.7318 2.28894 14.7318 2.71105 14.4714 2.9714L7.13807 10.3047C6.87772 10.5651 6.45561 10.5651 6.19526 10.3047C5.93491 10.0444 5.93491 9.62227 6.19526 9.36192L13.5286 2.02859C13.7889 1.76824 14.2111 1.76824 14.4714 2.02859Z" fill="#0F61FF"/>
</svg>
