<svg width="395" height="550" viewBox="0 0 395 550" fill="none" xmlns="http://www.w3.org/2000/svg">
<path opacity="0.1" d="M394.316 405.761C388.598 304.755 261.303 258.843 249.12 254.128C248.623 253.88 248.623 253.383 248.872 252.887L380.145 121.356V107.21C380.145 104.977 378.156 102.991 375.918 102.991H134.008V0L44.7521 18.6129V32.0142H49.7246C49.7246 32.0142 71.6034 32.0142 71.6034 53.8533V102.743H2.48623C1.24312 102.743 0 103.984 0 105.225V136.246H71.8521V304.755C71.8521 357.616 105.913 394.345 165.583 389.382C178.263 388.389 189.948 383.425 199.893 376.973C204.368 373.995 207.103 369.28 207.103 363.82V347.192C187.71 360.097 171.301 359.353 171.301 359.353C133.511 359.353 134.256 311.456 134.256 311.456V136.246H308.293L182.987 262.318C182.738 278.945 182.489 291.85 182.489 292.098C182.489 292.595 182.738 292.843 183.235 292.843C298.099 312.2 329.177 386.404 329.177 407.994C329.177 407.994 341.608 512.971 236.441 520.168C236.441 520.168 167.572 523.146 155.389 495.599C154.892 494.606 155.389 493.614 156.384 493.117C167.821 487.906 175.528 477.731 175.528 464.081C175.528 443.731 163.097 427.104 136.991 427.104C115.858 427.104 98.4547 443.731 98.4547 464.081C98.4547 464.081 88.5098 552.43 236.192 549.949C404.758 546.971 394.316 405.761 394.316 405.761Z" fill="#D2D2D7"/>
</svg>
